<svg xmlns="http://www.w3.org/2000/svg" width="575" height="575" preserveAspectRatio="xMidYMid slice" style="width:100%;height:100%">
  <defs>
    <clipPath id="a">
      <path d="M0 0h575v575H0z"/>
    </clipPath>
  </defs>
  <g clip-path="url(#a)">
    <g display="block">
      <path fill="none" stroke="#FFF" stroke-miterlimit="10" stroke-width="4.179" d="M290.37600136 121.6609993l-23.2689991-39.70000076 23.2689991-39.70000077h46.53300094l23.26799965 39.70000077-23.26799965 39.70000076h-46.53300094z"/>
      <path fill="#FFF" d="M325.89200401 81.96099854l-6.12699985-10.44699955H307.5210042l-6.12299967 10.44699955 6.12299967 10.44699955h12.24399996l6.12699985-10.44699955z"/>
      <path fill="none" stroke="#FFF" stroke-miterlimit="10" stroke-width="4.179" d="M327.2950058 111.2140007h-29.25300217"/>
      <path fill="none" stroke="#F8F8F8" stroke-dasharray="4.179 4.179" stroke-miterlimit="10" stroke-width="4.179" d="M310.58000755 54.79799843h20.8949995l10.44699956 16.7159996"/>
    </g>
    <path fill="none" stroke="#FFF" stroke-miterlimit="10" stroke-width="4.179" d="M82.4790001 264.89099884l-44.76900102-77.310997 44.76900101-77.31099702h89.53800202l44.769001 77.31099701-44.769001 77.31099701H82.47900009z" display="block"/>
    <g display="block">
      <path fill="none" stroke="#FFF" stroke-miterlimit="10" stroke-width="4.179" d="M100.0739975 200.40698814l2.19799995-29.83799934 27.17299986-12.52000046 24.97699976 17.3170004-2.1989994 29.83800029-27.17100049 12.52499962-24.97799968-17.3220005z"/>
      <path fill="none" stroke="#FFF" stroke-dasharray="8.358 4.179" stroke-miterlimit="10" stroke-width="4.179" d="M175.62499619 186.11898959c.97800064 26.71999967-19.8920002 49.17000043-46.60799945 50.14399945-26.71599996.9770012-49.17000043-19.89299964-50.14399946-46.60799944-.97800064-26.72099912 19.88699913-49.17000043 46.6069994-50.14399946 26.717-.97700119 49.17100048 19.88799858 50.1449995 46.60799945z"/>
      <path fill="none" stroke="#FFF" stroke-miterlimit="10" stroke-width="4.179" d="M138.22199726 187.48699015c.22099972 6.05999977-4.51399994 11.1529997-10.57299998 11.37499982-6.05899999.21700001-11.15400026-4.513-11.37499997-10.57699984-.22099972-6.05899983 4.513-11.1500004 10.57299998-11.3710001 6.06300017-.22099973 11.15299985 4.513 11.37499997 10.57300012z"/>
    </g>
    <g display="block">
      <path fill="#F8F8F8" d="M167.18600082 127.11399932c.0710001-3.41399999-2.63699984-6.23400016-6.04699978-6.30100007-3.41-.07499981-6.23000017 2.63700008-6.3020002 6.04300007-.06999969 3.41 2.63800026 6.2310001 6.0470002 6.3009998 3.41000006.07200002 6.23100016-2.63699985 6.30199978-6.0429998zM95.1600027 132.34399915c1.76800013-2.91699994.83400012-6.71099997-2.08599996-8.47899986-2.91700002-1.76399993-6.71600008-.83599996-8.47900009 2.08500004-1.76900005 2.91699988-.83199978 6.71599984 2.08500004 8.4790001 2.91700002 1.76799964 6.71600008.83199977 8.48000002-2.08500028zM59.16300368 197.24399853c2.98800016-1.64599991 4.07799983-5.399 2.4349997-8.38700009-1.64599966-2.98799991-5.40299977-4.0749998-8.39099979-2.4369998-2.98799991 1.64699984-4.07399988 5.4039999-2.43099975 8.39199997 1.64199972 2.98800015 5.39899977 4.07799983 8.38699984 2.43199992zM99.80000305 252.48399463c.0710001-3.41-2.63599968-6.23000017-6.04599978-6.30099979-3.41000007-.0710001-6.23100017 2.63699985-6.3019998 6.0429998-.07100009 3.41399998 2.63599969 6.23500008 6.04599979 6.302 3.41000007.0749998 6.23100017-2.63800002 6.3019998-6.044zM170.04300165 253.38900232c1.76800013-2.91699987.83199978-6.71599984-2.08500004-8.47900009-2.91700002-1.76799965-6.71600008-.83199978-8.47900009 2.08500028-1.76800012 2.91699993-.83599996 6.71099996 2.08500004 8.47899985 2.91700003 1.76399994 6.71499991.83599997 8.4790001-2.08500004zM201.43100405 192.91899824c2.98799991-1.6459999 4.07399988-5.40299989 2.43200016-8.39199996-1.6420002-2.98699975-5.39900018-4.07799983-8.38700009-2.43199992-2.98799991 1.64700007-4.079 5.4-2.43700027 8.38700008 1.64700007 2.98899985 5.40400018 4.07499981 8.3920002 2.4369998z"/>
    </g>
    <path fill="none" stroke="#FFF" stroke-miterlimit="10" stroke-width="4.179" d="M100.83199787 480.27697754L90.2729969 462.25697708l10.55900097-18.02000046h21.12199974l10.55900097 18.02000046-10.55900097 18.02000046h-21.12199974z" display="block"/>
    <path fill="none" stroke="#FFF" stroke-miterlimit="10" stroke-width="8.358" d="M234.93498993 399.47299194l-60.79599762-101.2009964 60.79599762-101.2009964h121.58800125l60.79099655 101.2009964-60.79099655 101.2009964H234.93498993z" display="block"/>
    <g display="block">
      <path fill="#FFF" d="M300.0850048 312.05498219l9.78100014-9.62500048-3.58300018-13.2409997-13.3579998-3.6220007-9.78100014 9.62400055 3.58199978 13.24199963 13.3590002 3.6220007z"/>
      <path fill="none" stroke="#FFF" stroke-dasharray="8.358 4.179" stroke-miterlimit="10" stroke-width="4.179" d="M353.99700546 296.41198659c1.17900086 32.3540008-24.08599853 59.53699946-56.43599915 60.71500087-32.35399986 1.1839981-59.53500152-24.08600235-60.71899963-56.43400073-1.17900085-32.35399938 24.08499909-59.53699994 56.43399978-60.7160008 32.35400033-1.1839981 59.5370009 24.08100128 60.720999 56.43500066z"/>
      <path fill="none" stroke="#F8F8F8" stroke-miterlimit="10" stroke-width="4.179" d="M336.80600739 286.59298515c6.60400009 22.85599995-6.5680008 46.7349987-29.4240017 53.34399987-22.86100006 6.6080017-46.73999977-6.56900025-53.34300041-29.42599965-6.6079979-22.85599994 6.56700134-46.73800182 29.42300034-53.34099865 22.85599994-6.60400009 46.73600006 6.56699753 53.34400177 29.42299843z"/>
      <path fill="none" stroke="#FFF" stroke-dasharray="30 0 0 0 0 30" stroke-miterlimit="10" stroke-width="8.358" d="M343.69000244 356.64798355c32.61199951-26.38800049 37.65599823-74.21599865 11.26800156-106.82799911-26.38899994-32.61199952-74.21500015-37.66200257-106.82699967-11.27399826-32.6119995 26.38899993-37.65699768 74.21599865-11.269001 106.82799911 26.38899994 32.61199951 74.21600055 37.66200256 106.82799911 11.27399826z"/>
    </g>
    <g display="block">
      <g fill="none" stroke="#FFF" stroke-miterlimit="10" stroke-width="4.179">
        <path d="M146.9050064 449.7849884l-23.26499938-39.70000076 23.26499939-39.70000076h46.53700065l23.26799965 39.70000076-23.26799965 39.70000076h-46.53700065z"/>
        <path d="M146.9050064 449.7849884l-23.26499938-39.70000076 23.26499939-39.70000076h46.53700065l23.26799965 39.70000076-23.26799965 39.70000076h-46.53700065z"/>
      </g>
      <path fill="none" stroke="#F8F8F8" stroke-miterlimit="10" stroke-width="4.179" d="M151.69400787 441.4269867l-18.36700058-31.34199906 18.36700058-31.34199905h36.95800019l18.36700058 31.34199905-18.36700058 31.34199905h-36.95800019z"/>
      <path fill="none" stroke="#FFF" stroke-dasharray="8.358 4.179" stroke-miterlimit="10" stroke-width="4.179" d="M183.95100784 408.98298806c.27600003 7.60999995-5.6630001 14.004-13.2719999 14.28000003-7.61000007.27600002-14.00400012-5.6630001-14.28000014-13.273-.27999974-7.60500026 5.6630001-13.99900031 13.27300018-14.27900005 7.60500008-.27600002 13.99900013 5.66699982 14.27899986 13.27200002z"/>
    </g>
    <g display="block">
      <g fill="none" stroke="#FFF" stroke-miterlimit="10" stroke-width="4.179">
        <path d="M415.291008 258.07801056l-40.80799866-68.95300348L415.291008 120.1740036h81.61100006l40.8069992 68.95100348-40.8069992 68.95300348H415.291008z"/>
        <path d="M415.291008 258.07801056l-40.80799866-68.95300348L415.291008 120.1740036h81.61100006l40.8069992 68.95100348-40.8069992 68.95300348H415.291008z"/>
        <path d="M415.291008 258.07801056l-40.80799866-68.95300348L415.291008 120.1740036h81.61100006l40.8069992 68.95100348-40.8069992 68.95300348H415.291008z"/>
      </g>
      <path fill="none" stroke="#F8F8F8" stroke-miterlimit="10" stroke-width="4.179" d="M449.46801186 249.72000313h-30.0300007L403.8380108 223.3520031M462.0050087 130.62000751h28.27100038l13.51900053 22.98399926"/>
      <path fill="none" stroke="#FFF" stroke-miterlimit="10" stroke-width="4.179" d="M441.50200844 212.11000633l-13.6040001-22.98299925 13.6040001-22.98499925h29.18900013l13.60299969 22.98499925-13.6029997 22.98299925h-29.18900012z"/>
      <path fill="none" stroke="#FFF" stroke-dasharray="8.358 4.179" stroke-miterlimit="10" stroke-width="4.179" d="M494.09100723 199.70300674c5.84200287-20.9819994-6.43099975-42.72900009-27.41799926-48.5719986-20.9819994-5.84200286-42.7290001 6.43099976-48.5719986 27.41799928-5.84200287 20.9829998 6.43099975 42.72599792 27.41799927 48.5719986 20.9829998 5.84200286 42.72999954-6.43599892 48.5719986-27.41799928z"/>
      <path fill="#FFF" d="M452.07300758 183.76100636l-2.6289997 6.23500019 4.02499985 5.36600011 6.65200019-.86899995 2.6289997-6.2350002-4.02399992-5.36600011-6.65300012.86899996z"/>
    </g>
    <g display="block">
      <path fill="none" stroke="#FFF" stroke-miterlimit="10" stroke-width="4.179" d="M270.75899696 534.74098206l-23.2689991-39.70000077 23.2689991-39.70000076h46.5320015l23.2689991 39.70000076-23.2689991 39.70000077h-46.5320015z"/>
      <path fill="#FFF" d="M290.33599877 501.32498026l-3.6730001-6.26900013 3.6730001-6.26700012h7.34500003l3.67400027 6.26700012-3.67400027 6.26900013h-7.34500003z"/>
      <path fill="none" stroke="#FFF" stroke-dasharray="8.358 4.179" stroke-miterlimit="10" stroke-width="4.179" d="M314.0379982 494.32698286c.40500069 11.0580002-8.23699951 20.35600054-19.2989999 20.76099932-11.06099976.40200042-20.35499943-8.23699951-20.75699986-19.29399932-.40500068-11.06600034 8.2329998-20.36000001 19.2949999-20.76099908 11.06100005-.40500069 20.35499972 8.23699951 20.76099986 19.29399908z"/>
      <path fill="#F8F8F8" d="M275.6839981 526.38398337h33.43199921v-4.17999982h-33.4319992v4.17999982z"/>
    </g>
  </g>
</svg>
