<svg xmlns="http://www.w3.org/2000/svg" width="575" height="575" preserveAspectRatio="xMidYMid slice" style="width:100%;height:100%">
  <defs>
    <clipPath id="a">
      <path d="M0 0h575v575H0z"/>
    </clipPath>
  </defs>
  <g clip-path="url(#a)">
    <g display="block">
      <path fill="none" stroke="#FFF" stroke-dasharray="8.01 4.005" stroke-miterlimit="10" stroke-width="4.005" d="M408.43099213 308.61800718c2.43700409 66.6689992-49.63499451 122.68899966-116.30399704 125.12599612-66.66899872 2.43600463-122.68799973-49.63499451-125.12499619-116.30399657-2.43600464-66.6689992 49.63399506-122.6899991 116.30299616-125.12599611 66.66900015-2.43600464 122.69000006 49.6349945 125.12599707 116.30399656z"/>
      <path fill="none" stroke="#FFF" stroke-miterlimit="10" stroke-width="8.01" d="M318.56198883 211.18801117c42.29199886 12.80599976 73.76199722 51.32699966 75.46500015 97.95700073.12299729 3.3429985.08799744 6.65699768-.09400177 9.93299866"/>
      <path fill="none" stroke="#F8F8F8" stroke-miterlimit="10" stroke-width="4.005" d="M468.73500061 316.60300827c-1.99099731 100.0929985-84.74700165 179.62100601-184.84000063 177.62999344-100.09299803-1.99099732-179.62000608-84.74499512-177.62899351-184.83799362 1.98999023-100.0929985 84.74499512-179.62100601 184.83799362-177.62999344 100.0929985 1.98999023 179.62199783 84.74499512 177.63100052 184.83799362zM120.19399261 284.61300278c7.24199868-43.01100064 30.61799932-80.40600014 63.58599854-105.90200043"/>
      <g fill="none" stroke="#FFF" stroke-miterlimit="10" stroke-width="4.005">
        <path d="M289.1369934 314.40200806s0 0 0 0zM289.1369934 314.40200806s0 0 0 0z"/>
      </g>
      <path fill="none" stroke="#F8F8F8" stroke-miterlimit="10" stroke-width="4.005" d="M108.30799294 207.08800507s0 0 0 0z"/>
      <path fill="none" stroke="#FFF" stroke-miterlimit="10" stroke-width="4.005" d="M252.07398987 171.1760025s0 0 0 0zM181.58899689 492.19100952s0 0 0 0zM466.69198608 418.91000366s0 0 0 0zM171.38899231 492.67501831s0 0 0 0zM251.58898926 169.23300552s0 0 0 0z"/>
      <path fill="none" stroke="#F8F8F8" stroke-miterlimit="10" stroke-width="4.005" d="M467.17599487 429.11001587s0 0 0 0z"/>
      <path fill="none" stroke="#FFF" stroke-miterlimit="10" stroke-width="4.005" d="M399.57198906 218.37801361l-24.99699974 23.41699982-1.32600021 78.82499742-2.00499917 68.99500227 21.4819994 22.3849945M286.04099655 226.84000683l78.24100113 1.55099964 26.6590004-26.63999939"/>
      <path fill="none" stroke="#FFF" stroke-miterlimit="10" stroke-width="4.005" d="M295.58899689 227.05600166l-9.54899979-.2159996-69.15999985-1.38300037-27.01699829-29.82499981M179.5449934 212.49300385l23.38500023 23.38500213-1.37300015 68.7029996-1.59799957 78.70599698-24.1430006 22.00600434M185.52699661 422.68298912l25.19099999-25.07600021 78.24199867 1.55000019"/>
      <path fill="none" stroke="#FFF" stroke-miterlimit="10" stroke-width="4.005" d="M383.84399033 428.66601658l-25.72599984-28.125-69.15899849-1.38400078-9.54800033-.21500015"/>
      <path fill="none" stroke="#FFF" stroke-miterlimit="10" stroke-width="8.01" d="M344.5859871 467.98399687l-126.3259964-2.51200009"/>
      <path fill="none" stroke="#FFF" stroke-miterlimit="10" stroke-width="4.005" d="M320.25500107 303.53400803c5.22800064 18.09000015-5.20000076 36.99300003-23.29000092 42.22000122-18.09000015 5.22800064-36.99300003-5.19900132-42.22000122-23.28900147-5.22800064-18.0909996 5.19900131-36.99300003 23.29000092-42.22100067 18.09000015-5.22800064 36.99200058 5.20000076 42.22000122 23.29000092zM225.33399963 108.30100417s0 0 0 0z"/>
      <path fill="none" stroke="#F8F8F8" stroke-miterlimit="10" stroke-width="4.005" d="M470.55999756 423.70700073s0 0 0 0z"/>
      <path fill="none" stroke="#FFF" stroke-dasharray="4.005 4.005" stroke-miterlimit="10" stroke-width="4.005" d="M252.05099487 370.08300018l-32.58300018-58.40800142 34.8789978-57.0639987 68.6800003 1.36599732 32.58100129 58.40600144-34.87799835 57.06599868-68.67900086-1.36599732z"/>
      <path fill="#FFF" d="M289.56200004 322.03100014l-8.87999988-2.63899994-2.06200027-9.03100014 6.81800007-6.3920002 8.87999988 2.63800001 2.06200027 9.03100014-6.81800007 6.39300013z"/>
      <path fill="none" stroke="#FFF" stroke-miterlimit="10" stroke-width="4.005" d="M204.60899353 453.28100586l-83.09799194-142.24899512 83.10699463-142.246 166.20600128.00500489 83.0989914 142.24999511-83.10799409 142.245-166.20600128-.00500488z"/>
      <path fill="none" stroke="#F8F8F8" stroke-dasharray="4.005 4.005" stroke-miterlimit="10" stroke-width="16.02" d="M223.6369934 166.84900284H351.79599"/>
      <path fill="none" stroke="#F8F8F8" stroke-miterlimit="10" stroke-width="4.005" d="M307.58899498 318.07901049c2.9619999-10.92799998-3.49600029-22.1880002-14.4250002-25.1500001-10.92799996-2.9619999-22.18900012 3.49699974-25.15100001 14.4250002-2.9619999 10.9289999 3.49699974 22.18800067 14.42500019 25.15000056 10.9289999 2.9619999 22.18900013-3.49600029 25.15100002-14.42500066z"/>
    </g>
    <g display="block">
      <path fill="none" stroke="#F8F8F8" stroke-miterlimit="10" stroke-width="4.005" d="M205.68197632 119.73900986s0 0 0 0z"/>
      <path fill="none" stroke="#FFF" stroke-miterlimit="10" stroke-width="4.005" d="M96.62398148 393.16300964s0 0 0 0z"/>
      <path fill="none" stroke="#F8F8F8" stroke-miterlimit="10" stroke-width="4.005" d="M211.30897522 111.2190094s0 0 0 0z"/>
      <path fill="none" stroke="#FFF" stroke-miterlimit="10" stroke-width="4.005" d="M370.0479889 502.22001648s0 0 0 0zM88.10398102 387.53501892s0 0 0 0z"/>
      <path fill="none" stroke="#F8F8F8" stroke-miterlimit="10" stroke-width="4.005" d="M364.41996765 510.7400055s0 0 0 0zM465.94698906 393.49501038l36.31500053 16.88800048M498.31198883 418.46501637l-35.63999939-18.26600075M459.19897842 406.67300987l34.9280014 19.59199906M502.26299095 410.38200283l-11.93799972-5.55200005M483.93697548 442.79999542l-33.20399857-22.38999939M489.43398857 434.25999546l-34.13299942-20.94799995M427.7279911 448.71899986l28.52000046 28.11800003M449.80999088 483.12000942l-27.42000007-29.19000053M416.94099522 458.85999966l26.30200004 30.19799995M456.2479825 476.83701849l-9.3760004-9.24199963M428.08599567 501.20400429l-23.73800087-32.25600052M436.13598347 495.00801373l-25.09899998-31.20699978M97.68898201 359.44900942l-38.79999924 9.92800045M56.82798386 360.62000704l39.15000152-8.43200016M94.56598091 344.9770019l-39.43799972 6.95499993M58.88998365 369.37701035l12.75199986-3.26399994M52.542984 332.68199968l39.87599946-3.6960001M53.69698334 342.77299905l39.6819992-5.4039998M92.58198357 290.97201681l-39.83800125-4.11600017M53.84298325 277.92600918l39.6479988 5.6420002M94.66298485 276.31501412L55.2549839 269.1890142M52.74498224 286.85600477l13.09599972 1.35399998M59.4919815 250.23200893l38.69200135 10.33600045M57.08298111 260.0990138l39.09799957 8.66800023M111.35098076 225.20701694L75.30098152 207.759017M79.37598228 199.73900318l35.3520012 18.81599999M118.30198097 212.1350069l-34.61999893-20.12999916M94.12698555 175.6280098l32.85200119 22.90399932M88.49798203 184.08300686l33.80400085 21.47400093M151.94498348 169.35500908l-27.71800041-28.90800095M130.83898067 134.34801388l26.58799935 29.94799995M163.01298523 159.52201366l-25.44400024-30.9260006M124.22798204 140.44701338l9.10999966 9.50199985M153.06098461 116.88101387l22.8220005 32.90999985M144.84198284 122.84801197l24.2119999 31.89999962M208.87397766 131.35300827L192.7059784 94.71300888M201.00498962 91.24101067l14.75099993 37.23199844M222.63598108 125.89600945l-13.342-37.75999833M192.705976 94.7130084l5.31400014 12.04399968M227.85797739 82.42201042l10.19999981 38.72800064M218.09498882 85.2190075l11.85100031 38.2540016"/>
      <path fill="none" stroke="#FFF" stroke-miterlimit="10" stroke-width="4.005" d="M358.45399475 109.03100967s0 0 0 0z"/>
      <path fill="none" stroke="#F8F8F8" stroke-miterlimit="10" stroke-width="4.005" d="M343.56197834 122.79900742l11.40100002-38.3919983M363.5359888 87.13300896l-12.86400031 37.92599868M357.58297682 127.54901123l14.27999973-37.41400146M354.96297395 84.40701056l-3.7479999 12.61999988M389.71098232 97.79900932l-17.30200004 36.11999894M380.45798111 93.6090107l-15.73600006 36.82799911M424.0849762 145.94901276s0 0 0 0zM405.3569851 153.73100662l23.95000076-32.09799957M436.41297817 127.15101147l-25.16399956 31.15600013M416.87798882 163.03001213l26.31499958-30.18799972M429.30798697 121.63200855l-7.87300014 10.55200005M457.29796886 146.19401169l-28.70400047 27.9300003M450.05999184 139.06900883l-27.47999955 29.13400078M472.90898132 203.60501099s0 0 0 0zM452.64198685 204.38301277l33.62200164-21.75799942M491.00599289 190.27000904l-34.43099976 20.45400047M460.20796776 217.11000252l35.17399978-19.14599991M486.26399136 182.62501168l-11.05200005 7.15199995M503.9609871 215.3910141l-36.62799836 16.19599914M499.65397072 206.19200802l-35.89799881 17.7520008M370.33998108 508.37501526s0 0 0 0zM372.19399357 488.1790104l17.21800041 36.15800094M381.21796799 528.04802322l-15.81899977-36.79199981M358.59496832 494.0300064l14.42599964 37.36000062M389.41299248 524.33800411l-5.65999985-11.88599968M354.62896967 537.63700104l-11.3130002-38.41600037M364.30799246 534.55900764l-12.94899988-37.8959999M498.3599701 272.62901306s0 0 0 0zM479.02099037 266.52000904l38.99399948-9.12800026M519.89696884 266.18801427l-39.3160019 7.62799978M481.84597397 281.05300283l39.5719986-6.14400005M518.01597929 257.39000642l-12.81799984 3.0020001M523.60897064 294.20700312l-39.94599914 2.88000011M522.6609974 284.09500766l-39.7840004 4.58799982M236.97598553 500.51399803l-10.39999962 38.67399979M217.93498564 536.685997l11.8760004-38.24800109M222.83498335 496.12899971l-13.3039999 37.77299881M226.57498837 539.18902302l3.41900002-12.7119999M191.49198246 526.70300293l16.3560009-36.55599976M200.84897709 530.65102386l14.77400017-37.22299957M174.21397972 471.01900291l-23.15999985 32.67300034M143.81698418 498.34900951l24.3959999-31.76000023M162.47098255 462.00600052l-25.5720005 30.8210001M151.05398488 503.6930132l7.61399984-10.73999978M122.47198105 479.82002544l28.01399994-28.62000084M129.88198566 486.76701069l26.76000023-29.79400063"/>
      <path fill="none" stroke="#FFF" stroke-miterlimit="10" stroke-width="4.005" d="M198.64698029 529.78201294c-5.57699585-2.27400208-11.12599946-4.78700256-16.49499512-7.46600342l17.87999725-35.83299255c14.03500366 6.99398803 29.144001 12.41899109 44.39799881 15.9059906l-8.91699982 39.04200744c-12.50899887-2.85301208-24.9109993-6.77500915-36.86600112-11.64900207zm-39.27999115-20.46099854c-15.94200135-10.30200195-30.61801148-22.54100036-43.6130066-36.37200927l29.18299866-27.42199707c10.77999878 11.46600341 22.94599915 21.6119995 36.16999817 30.15899658l-21.73999023 33.63500976zm102.02399444 36.51599122l4.50799942-39.7919922c15.60899973 1.7649994 31.45199967 1.63299561 47.08399964-.39801025l5.16200065 39.7130127c-18.83600044 2.45199585-37.93300056 2.6100006-56.7539997.47698975zM98.87098694 452.85801697c-11.3540039-15.15500641-20.88700867-31.68800354-28.33000183-49.13800812l36.83399963-15.71399689c6.19000244 14.50699616 14.10899353 28.24499512 23.54699707 40.83599854l-32.05099487 24.01600647zm245.05299759 87.67999267l-9.52400208-38.89700317c15.28900147-3.7460022 30.13100052-9.33200073 44.11300278-16.6060028l18.48500061 35.52500915c-16.8180008 8.75299072-34.67500305 15.47200012-53.07400131 19.97799682zM61.58798218 379.07301331c-5.48399353-18.1760025-8.76199341-36.97400284-9.75300598-55.87400341l39.9980011-2.08899975c.81800842 15.68599891 3.54499816 31.29799843 8.1000061 46.395998L61.58798218 379.0730133zM419.5579834 507.1940155l-22.28400421-33.27101136c13.0980072-8.7749939 25.10800934-19.11599731 35.7009964-30.73699951l29.6000061 26.9710083c-12.7619934 14.0099945-27.23500061 26.46800232-43.0169983 37.03700256zM51.92797852 296.9530096c1.12800598-18.9060011 4.55500793-37.6900015 10.19400024-55.82900143l38.2440033 11.88500213c-4.67799378 15.05500031-7.522995 30.64299965-8.45599366 46.32499981l-39.98200988-2.38100051zm426.84500122 153.7609949l-32.6210022-23.03299712c9.19300842-12.6949997 18.13600159-29.62599946 22.67300415-40.75099946l37.08500671 15.12000275c-6.04901123 14.83399963-16.06300354 33.37799835-27.13700866 48.66399384zM107.97497559 232.55700685l-36.72299195-15.98799897c7.59300232-17.4399948 17.24899292-33.90299225 28.69900513-48.93099212l31.85798645 24.2749939c-9.5079956 12.47100066-17.52398682 26.14399719-23.83399963 40.64399719zM473.9219818 373.41400909c5.04100037-14.97399902 8.26100159-30.49399948 9.56500244-46.12399864l39.91200257 3.3409996c-1.57800293 18.83799935-5.45401001 37.5319996-11.5189972 55.55700112l-37.9580078-12.77400208zM145.9479828 175.35400391l-28.94000244-27.68099976c13.08599853-13.68598938 27.852005-25.79499817 43.87800598-35.99099731l21.49799347 33.79200744c-13.31099701 8.46800232-25.5699997 18.5209961-36.43599701 29.87998963zm338.13400268 130.16400623c-.43899536-15.69299984-2.79299926-31.36200047-6.9869995-46.5690012l38.6060028-10.65099716c5.05299377 18.310997 7.88198852 37.18499756 8.41600037 56.09799814l-40.03500367 1.12200022zM201.3969803 134.81100464l-17.63299561-35.95799256c17.02500153-8.3480072 35.03399658-14.64300537 53.53299713-18.71099853l8.59799957 39.11599731c-15.375 3.38000489-30.34400177 8.6130066-44.4980011 15.55299378zm268.75099945 103.47000885c-5.84300232-14.64200592-13.43699646-28.5660019-22.57398987-41.38500214l32.61499023-23.24499511c10.99499512 15.42499542 20.1289978 32.17799377 27.15600586 49.79199218l-37.19700622 14.83800507zM267.398983 115.76501465l-4.22000122-39.82701111c18.8850007-1.99899292 37.9810009-1.70199585 56.76100159.88500977l-5.46600151 39.67500305c-15.572999-2.14500428-31.41199923-2.39201355-47.07499886-.73300171zm166.5629921 64.11898804c-10.51098633-11.72999573-22.43199158-22.16799927-35.43698883-31.022995l22.54499054-33.1040039c15.67900085 10.67900085 30.05200195 23.26400756 42.72000122 37.40200805L433.9619751 179.8840027zm-98.11099243-59.21499634l9.84899902-38.81999207c18.20899963 4.61799622 36.21400452 11.5479889 52.89500427 20.3710022l-18.727005 35.40299988c-13.87599945-7.34100342-28.8809967-13.11601258-44.0169983-16.95401001z"/>
    </g>
    <g display="block">
      <path fill="#FFF" d="M280.85799599 30.63999939h16.02000045v214.26600647H280.857996V30.63999939z"/>
      <path fill="#0A2155" d="M292.87299633 242.1499939h-8.01000023V34.64499664h8.01000023V242.1499939zm8.01000023-215.5149994h-8.01000023-8.01000023-8.01000023V248.90899659H300.88299656v-8.00900268V34.64499664v-8.01000213z"/>
      <path fill="#FFF" d="M40.56801605 443.37000656l185.55899811-107.13299942 8.00899506 13.87299729L48.57801056 457.24300385l-8.0099945-13.87299729z"/>
      <path fill="#0A2155" d="M224.6600113 341.708004l4.00500487 6.93600082L50.04201507 451.772007l-4.00500488-6.93700028L224.6600113 341.708004zm2.9319992-10.94199753l-6.93799591 4.00499725L42.03201294 437.8990059l-6.93699646 4.00500107 4.00499725 6.935997 4.0059967 6.93700028 4.00500489 6.93700028 6.935997-4.00499726L232.66901399 355.5810051l6.9379959-4.0039978-4.00499725-6.93700028-4.0059967-6.93700028-4.00400543-6.93700027z"/>
      <path fill="#F8F8F8" d="M282.85999632 22.6299982h12.0159998v24.0300007h-12.0159998V22.6299982z"/>
      <path fill="#0A2155" d="M292.87400341 44.65799809h-8.01000023V24.63399887h8.01000023V44.6579981zm4.00500011-24.03099919h-4.00500011-8.01000023-4.00500011V48.6629982h16.02000045v-4.0050001-20.02599907-4.00500012z"/>
      <path fill="#F8F8F8" d="M34.63301182 449.10799378l20.80999994-12.01500004 6.00600004 10.40700006-20.80999994 12.01300001-6.00600004-10.40500003z"/>
      <path fill="#0A2155" d="M54.71001196 439.8289938l4.00400019 6.93700003-17.34200049 10.01200033-4.00499964-6.9370004 17.34299994-10.01199996zm1.46600008-5.47099972l-3.46800041 2.00199985-17.34299946 10.0129999-3.46900082 2.00299994 2.00400067 3.46699997 4.0039997 6.93700027 2.00199986 3.46799946 3.47000027-2.00099945 17.3409996-10.01300025 3.46900082-2.003-2.00200081-3.46799996-4.00599957-6.93700027-2.00199985-3.46799946z"/>
      <path fill="#FFF" d="M340.59901428 351.84400558l8.0099945-13.87399673 185.55799867 107.13299942-8.00899506 13.87299728-185.5589981-107.13199997z"/>
      <path fill="#0A2155" d="M350.0750122 343.4410057l178.6210022 103.12700272-4.00500488 6.93700028-178.6210022-103.12800217 4.00500489-6.93600082zm-2.9319992-10.94199752l-4.00500488 6.93700027-4.00499726 6.93700028-4.00499725 6.935997 6.93699646 4.00500108 178.62200165 103.12800216 6.935997 4.00499726 4.0050049-6.93700028 4.00499724-6.93700027 4.00499726-6.93700028-6.93699646-4.00499725-178.6210022-103.12700272-6.93699646-4.00499725z"/>
      <path fill="#F8F8F8" d="M513.28601551 449.23300964l6.00600004-10.40500003 20.80999995 12.013-6.00600005 10.40700007-20.80999994-12.01500004z"/>
      <path fill="#0A2155" d="M520.02501535 441.56300259l17.34200049 10.01199996-4.00500012 6.9370004-17.34100055-10.01200033 4.00400018-6.93700003zm-1.46499967-5.47099972l-2.00300026 3.46799946-4.00500012 6.93700027-2.00300025 3.46899996 3.4680004 2.002 17.34299994 10.01199984 3.46799994 2.00300026 2.00300026-3.46899986 4.0039997-6.93700027 2.00400067-3.46799997-3.46900082-2.00199994-17.3409996-10.0129999-3.46899986-2.00199985z"/>
    </g>
    <g display="block">
      <path fill="none" stroke="#FFF" stroke-miterlimit="10" stroke-width="4.005" d="M326.38999557 245.54899406l-21.77999973 38.22499848M208.30499268 313.04998893l45.25099945.09300005M248.3789978 380.71199226l21.7670002-37.81399917M305.44399166 342.41499138l21.92100048 37.32600021"/>
      <path fill="none" stroke="#FFF" stroke-miterlimit="10" stroke-width="8.01" d="M247.45199203 380.10299683l-39.33400344-67.33400238 39.33800506-67.32800019 80.09199906.0039978 39.33400344 67.33100239-39.33800506 67.33100018-80.09199906-.0039978z"/>
      <path fill="none" stroke="#FFF" stroke-miterlimit="10" stroke-width="4.005" d="M247.89199257 245.8529911l22.18600082 37.6190014M321.67799377 313.10099483l45.16799927-.07299996"/>
    </g>
    <g display="block">
      <path fill="#FFF" d="M356.68799973 206.0740069c-.06799984 3.31700005-2.81299997 5.9519998-6.12999998 5.88399996-3.31700005-.06899977-5.9519998-2.81299996-5.88300004-6.12999997.06799984-3.31700006 2.81200004-5.95099988 6.13000004-5.88300004 3.317.06799984 5.95099982 2.81200003 5.88299998 6.12900004zM396.7369957 250.1280087c-.06799984 3.31700005-2.81299997 5.9519998-6.12999998 5.88300004-3.31700005-.06799984-5.9519998-2.81200004-5.88300003-6.13000004.06799984-3.31600006 2.81200003-5.94999988 6.13000004-5.88200004 3.31699998.06799984 5.9509998 2.81200003 5.88299997 6.12900004zM408.75199509 346.24800818c-.06799984 3.31699998-2.81299997 5.9509998-6.12999998 5.88299997-3.31700005-.06899977-5.95099987-2.81299997-5.88300003-6.12999997.06900024-3.31700006 2.81200003-5.95099988 6.12900004-5.88300004 3.31799998.06799984 5.9519998 2.81299996 5.88399997 6.13000004zM176.46399546 346.24800818c-.06799984 3.31699998-2.8139999 5.9509998-6.13099997 5.88299997-3.31699999-.06899977-5.95099981-2.81299997-5.88200004-6.12999997.06799984-3.31700006 2.81299996-5.95099988 6.13000004-5.88300004 3.31699998.06799984 5.9509998 2.81299996 5.88299997 6.13000004zM216.51599503 414.08400781c.06799984-3.31699998 2.81399989-5.94999988 6.13099996-5.88100011 3.31699999.06800031 5.95099981 2.8110001 5.88200005 6.12900011-.06799984 3.31600006-2.81299997 5.95099981-6.13100004 5.88299997-3.31699992-.06799984-5.94999981-2.81399989-5.88199997-6.13099997zM336.66498995 418.0890127c.06799984-3.31699999 2.81200003-5.94999989 6.12900004-5.88100012 3.31700006.06800032 5.9519998 2.81100011 5.88300004 6.12900011-.06799984 3.31600006-2.81200003 5.95099981-6.13000004 5.88299997-3.31699998-.06799983-5.94999988-2.81399989-5.88200004-6.13099996zM220.5209961 205.8270069c.06799983-3.317 2.81399989-5.95099982 6.13099996-5.88299998 3.31699999.06899977 5.95099981 2.81299996 5.88200005 6.12999997-.06799984 3.31700006-2.81299997 5.95099988-6.13100005 5.88300004-3.3169999-.06799984-5.9499998-2.81299996-5.88199997-6.13000004zM176.46599579 249.8810087c.06799984-3.31699999 2.81399989-5.95099981 6.13099997-5.88200004 3.31699998.06799984 5.9509998 2.81200003 5.88200004 6.13000004-.06799984 3.31600005-2.81400013 5.94999988-6.13100004 5.88200004-3.31699991-.06799984-5.94999981-2.81299996-5.88199997-6.13000004z"/>
    </g>
  </g>
</svg>
