<svg xmlns="http://www.w3.org/2000/svg" width="575" height="575" preserveAspectRatio="xMidYMid slice"><defs><clipPath id="a"><path d="M0 0h575v575H0z"/></clipPath></defs><g clip-path="url(#a)"><g display="block"><path fill="none" stroke="#FFF" stroke-dasharray="8.01 4.005" stroke-miterlimit="10" stroke-width="4.005" d="M408.431 308.618c2.437 66.669-49.635 122.689-116.304 125.126-66.669 2.436-122.688-49.635-125.125-116.304-2.436-66.669 49.634-122.69 116.303-125.126 66.669-2.436 122.69 49.635 125.126 116.304z"/><path fill="none" stroke="#FFF" stroke-miterlimit="10" stroke-width="8.01" d="M318.562 211.188c42.292 12.806 73.762 51.327 75.465 97.957.123 3.343.088 6.657-.094 9.933"/><path fill="none" stroke="#F8F8F8" stroke-miterlimit="10" stroke-width="4.005" d="M468.735 316.603c-1.991 100.093-84.747 179.621-184.84 177.63-100.093-1.991-179.62-84.745-177.629-184.838 1.99-100.093 84.745-179.621 184.838-177.63 100.093 1.99 179.622 84.745 177.631 184.838zm-348.541-31.99c7.242-43.011 30.618-80.406 63.586-105.902"/><path d="M289.137 314.402s0 0 0 0zm0 0s0 0 0 0z" fill="none" stroke="#FFF" stroke-miterlimit="10" stroke-width="4.005"/><path fill="none" stroke="#F8F8F8" stroke-miterlimit="10" stroke-width="4.005" d="M108.308 207.088s0 0 0 0z"/><path fill="none" stroke="#FFF" stroke-miterlimit="10" stroke-width="4.005" d="M252.074 171.176s0 0 0 0zm-70.485 321.015s0 0 0 0zm285.103-73.281s0 0 0 0zm-295.303 73.765s0 0 0 0zm80.2-323.442s0 0 0 0z"/><path fill="none" stroke="#F8F8F8" stroke-miterlimit="10" stroke-width="4.005" d="M467.176 429.11s0 0 0 0z"/><path fill="none" stroke="#FFF" stroke-miterlimit="10" stroke-width="4.005" d="M399.572 218.378l-24.997 23.417-1.326 78.825-2.005 68.995L392.726 412M286.041 226.84l78.241 1.551 26.659-26.64"/><path fill="none" stroke="#FFF" stroke-miterlimit="10" stroke-width="4.005" d="M295.589 227.056l-9.549-.216-69.16-1.383-27.017-29.825m-10.318 16.861l23.385 23.385-1.373 68.703-1.598 78.706-24.143 22.006m9.711 17.39l25.191-25.076 78.242 1.55"/><path fill="none" stroke="#FFF" stroke-miterlimit="10" stroke-width="4.005" d="M383.844 428.666l-25.726-28.125-69.159-1.384-9.548-.215"/><path fill="none" stroke="#FFF" stroke-miterlimit="10" stroke-width="8.01" d="M344.586 467.984l-126.326-2.512"/><path fill="none" stroke="#FFF" stroke-miterlimit="10" stroke-width="4.005" d="M320.255 303.534c5.228 18.09-5.2 36.993-23.29 42.22-18.09 5.228-36.993-5.199-42.22-23.289-5.228-18.091 5.199-36.993 23.29-42.221 18.09-5.228 36.992 5.2 42.22 23.29zm-94.921-195.233s0 0 0 0z"/><path fill="none" stroke="#F8F8F8" stroke-miterlimit="10" stroke-width="4.005" d="M470.56 423.707s0 0 0 0z"/><path fill="none" stroke="#FFF" stroke-dasharray="4.005 4.005" stroke-miterlimit="10" stroke-width="4.005" d="M252.051 370.083l-32.583-58.408 34.879-57.064 68.68 1.366 32.581 58.406-34.878 57.066-68.679-1.366z"/><path fill="#FFF" d="M289.562 322.031l-8.88-2.639-2.062-9.031 6.818-6.392 8.88 2.638 2.062 9.031-6.818 6.393z"/><path fill="none" stroke="#FFF" stroke-miterlimit="10" stroke-width="4.005" d="M204.609 453.281l-83.098-142.249 83.107-142.246 166.206.005 83.099 142.25-83.108 142.245-166.206-.005z"/><path fill="none" stroke="#F8F8F8" stroke-dasharray="4.005 4.005" stroke-miterlimit="10" stroke-width="16.02" d="M223.637 166.849h128.159"/><path fill="none" stroke="#F8F8F8" stroke-miterlimit="10" stroke-width="4.005" d="M307.589 318.079c2.962-10.928-3.496-22.188-14.425-25.15-10.928-2.962-22.189 3.497-25.151 14.425-2.962 10.929 3.497 22.188 14.425 25.15 10.929 2.962 22.189-3.496 25.151-14.425z"/></g><g display="block" fill="none" stroke-miterlimit="10" stroke-width="4.005"><path stroke="#F8F8F8" d="M205.682 119.739s0 0 0 0z"/><path stroke="#FFF" d="M96.624 393.163s0 0 0 0z"/><path stroke="#F8F8F8" d="M211.309 111.219s0 0 0 0z"/><path stroke="#FFF" d="M370.048 502.22s0 0 0 0zM88.104 387.535s0 0 0 0z"/><path stroke="#F8F8F8" d="M364.42 510.74s0 0 0 0zm101.527-117.245l36.315 16.888m-3.95 8.082l-35.64-18.266m-3.473 6.474l34.928 19.592m8.136-15.883l-11.938-5.552m-6.388 37.97l-33.204-22.39m38.701 13.85l-34.133-20.948m-27.573 35.407l28.52 28.118m-6.438 6.283l-27.42-29.19m-5.449 4.93l26.302 30.198m13.005-12.221l-9.376-9.242m-18.786 33.609l-23.738-32.256m31.788 26.06l-25.099-31.207M97.689 359.449l-38.8 9.928m-2.061-8.757l39.15-8.432m-1.412-7.211l-39.438 6.955m3.762 17.445l12.752-3.264m-19.099-33.431l39.876-3.696m-38.722 13.787l39.682-5.404m-.797-46.397l-39.838-4.116m1.099-8.93l39.648 5.642m1.172-7.253l-39.408-7.126m-2.51 17.667l13.096 1.354m-6.349-37.978l38.692 10.336m-41.101-.469l39.098 8.668m15.17-43.56l-36.05-17.448m4.075-8.02l35.352 18.816m3.574-6.42l-34.62-20.13m10.445-16.377l32.852 22.904m-38.481-14.449l33.804 21.474m29.643-36.202l-27.718-28.908m6.612-6.099l26.588 29.948m5.586-4.774l-25.444-30.926m-13.341 11.851l9.11 9.502m19.723-33.068l22.822 32.91m-31.041-26.943l24.212 31.9m39.82-23.395l-16.168-36.64m8.299-3.472l14.751 37.232m6.88-2.577l-13.342-37.76m-16.588 6.577l5.314 12.044m29.838-24.335l10.2 38.728m-19.963-35.931l11.851 38.254"/><path stroke="#FFF" d="M358.454 109.031s0 0 0 0z"/><path stroke="#F8F8F8" d="M343.562 122.799l11.401-38.392m8.573 2.726l-12.864 37.926m6.911 2.49l14.28-37.414m-16.9-5.728l-3.748 12.62m38.496.772l-17.302 36.12m8.049-40.31l-15.736 36.828m59.363 15.512s0 0 0 0zm-18.728 7.782l23.95-32.098m7.106 5.518l-25.164 31.156m5.629 4.723l26.315-30.188m-13.885-11.21l-7.873 10.552m35.863 14.01l-28.704 27.93m21.466-35.055l-27.48 29.134m50.329 35.402s0 0 0 0zm-20.267.778l33.622-21.758m4.742 7.645l-34.431 20.454m3.633 6.386l35.174-19.146m-9.118-15.339l-11.052 7.152m28.749 25.614l-36.628 16.196m32.321-25.395l-35.898 17.752M370.34 508.375s0 0 0 0zm1.854-20.196l17.218 36.158m-8.194 3.711l-15.819-36.792m-6.804 2.774l14.426 37.36m16.392-7.052l-5.66-11.886m-29.124 25.185l-11.313-38.416m20.992 35.338l-12.949-37.896M498.36 272.629s0 0 0 0zm-19.339-6.109l38.994-9.128m1.882 8.796l-39.316 7.628m1.265 7.237l39.572-6.144m-3.402-17.519l-12.818 3.002m18.411 33.815l-39.946 2.88m38.998-12.992l-39.784 4.588M236.976 500.514l-10.4 38.674m-8.641-2.502l11.876-38.248m-6.976-2.309l-13.304 37.773m17.044 5.287l3.419-12.712m-38.502.226l16.356-36.556m-6.999 40.504l14.774-37.223m-41.409-22.409l-23.16 32.673m-7.237-5.343l24.396-31.76m-5.742-4.583l-25.572 30.821m14.155 10.866l7.614-10.74m-36.196-13.133l28.014-28.62m-20.604 35.567l26.76-29.794"/><path stroke="#FFF" d="M198.647 529.782a240.392 240.392 0 01-16.495-7.466l17.88-35.833c14.035 6.994 29.144 12.419 44.398 15.906l-8.917 39.042a238.344 238.344 0 01-36.866-11.649zm-39.28-20.461a234.677 234.677 0 01-43.613-36.372l29.183-27.422a194.9 194.9 0 0036.17 30.159l-21.74 33.635zm102.024 36.516l4.508-39.792a195.412 195.412 0 0047.084-.398l5.162 39.713a235.061 235.061 0 01-56.754.477zm-162.52-92.979a237.342 237.342 0 01-28.33-49.138l36.834-15.714a197.13 197.13 0 0023.547 40.836l-32.051 24.016zm245.053 87.68l-9.524-38.897a197.547 197.547 0 0044.113-16.606l18.485 35.525a237.404 237.404 0 01-53.074 19.978zM61.588 379.073a236.504 236.504 0 01-9.753-55.874l39.998-2.089a196.191 196.191 0 008.1 46.396l-38.345 11.567zm357.97 128.121l-22.284-33.271a195.84 195.84 0 0035.701-30.737l29.6 26.971a235.468 235.468 0 01-43.017 37.037zM51.928 296.953a235.504 235.504 0 0110.194-55.829l38.244 11.885a195.399 195.399 0 00-8.456 46.325l-39.982-2.381zm426.845 153.761l-32.621-23.033c9.193-12.695 18.136-29.626 22.673-40.751l37.085 15.12c-6.049 14.834-16.063 33.378-27.137 48.664zM107.975 232.557l-36.723-15.988c7.593-17.44 17.249-33.903 28.699-48.931l31.858 24.275c-9.508 12.471-17.524 26.144-23.834 40.644zm365.947 140.857a195.744 195.744 0 009.565-46.124l39.912 3.341a236.253 236.253 0 01-11.519 55.557l-37.958-12.774zm-327.974-198.06l-28.94-27.681a236.132 236.132 0 0143.878-35.991l21.498 33.792a196.21 196.21 0 00-36.436 29.88zm338.134 130.164a195.969 195.969 0 00-6.987-46.569l38.606-10.651a236.163 236.163 0 018.416 56.098l-40.035 1.122zM201.397 134.811l-17.633-35.958a237.659 237.659 0 0153.533-18.711l8.598 39.116a197.506 197.506 0 00-44.498 15.553zm268.751 103.47a197.471 197.471 0 00-22.574-41.385l32.615-23.245a237.457 237.457 0 0127.156 49.792l-37.197 14.838zM267.399 115.765l-4.22-39.827a235.04 235.04 0 0156.761.885l-5.466 39.675a194.898 194.898 0 00-47.075-.733zm166.563 64.119a194.988 194.988 0 00-35.437-31.023l22.545-33.104a235.194 235.194 0 0142.72 37.402l-29.828 26.725zm-98.111-59.215l9.849-38.82c18.209 4.618 36.214 11.548 52.895 20.371l-18.727 35.403c-13.876-7.341-28.881-13.116-44.017-16.954z"/></g><g display="block"><path fill="#FFF" d="M280.858 30.64h16.02v214.266h-16.02V30.64z"/><path fill="#0A2155" d="M292.873 242.15h-8.01V34.645h8.01V242.15zm8.01-215.515h-24.03v222.274h24.03V26.635z"/><path fill="#FFF" d="M40.568 443.37l185.559-107.133 8.009 13.873L48.578 457.243l-8.01-13.873z"/><path fill="#0A2155" d="M224.66 341.708l4.005 6.936L50.042 451.772l-4.005-6.937L224.66 341.708zm2.932-10.942l-6.938 4.005L42.032 437.899l-6.937 4.005 4.005 6.936 4.006 6.937 4.005 6.937 6.936-4.005 178.622-103.128 6.938-4.004-4.005-6.937-4.006-6.937-4.004-6.937z"/><path fill="#F8F8F8" d="M282.86 22.63h12.016v24.03H282.86V22.63z"/><path fill="#0A2155" d="M292.874 44.658h-8.01V24.634h8.01v20.024zm4.005-24.031h-16.02v28.036h16.02V20.627z"/><path fill="#F8F8F8" d="M34.633 449.108l20.81-12.015 6.006 10.407-20.81 12.013-6.006-10.405z"/><path fill="#0A2155" d="M54.71 439.829l4.004 6.937-17.342 10.012-4.005-6.937 17.343-10.012zm1.466-5.471l-3.468 2.002-17.343 10.013-3.469 2.003 2.004 3.467 4.004 6.937 2.002 3.468 3.47-2.001 17.341-10.013 3.469-2.003-2.002-3.468-4.006-6.937-2.002-3.468z"/><path fill="#FFF" d="M340.599 351.844l8.01-13.874 185.558 107.133-8.009 13.873-185.559-107.132z"/><path fill="#0A2155" d="M350.075 343.441l178.621 103.127-4.005 6.937L346.07 350.377l4.005-6.936zm-2.932-10.942l-4.005 6.937-4.005 6.937-4.005 6.936 6.937 4.005 178.622 103.128 6.936 4.005 4.005-6.937 4.005-6.937 4.005-6.937-6.937-4.005L354.08 336.504l-6.937-4.005z"/><path fill="#F8F8F8" d="M513.286 449.233l6.006-10.405 20.81 12.013-6.006 10.407-20.81-12.015z"/><path fill="#0A2155" d="M520.025 441.563l17.342 10.012-4.005 6.937-17.341-10.012 4.004-6.937zm-1.465-5.471l-2.003 3.468-4.005 6.937-2.003 3.469 3.468 2.002 17.343 10.012 3.468 2.003 2.003-3.469 4.004-6.937 2.004-3.468-3.469-2.002-17.341-10.013-3.469-2.002z"/></g><g display="block" fill="none" stroke="#FFF" stroke-miterlimit="10"><path stroke-width="4.005" d="M326.39 245.549l-21.78 38.225m-96.305 29.276l45.251.093m-5.177 67.569l21.767-37.814m35.298-.483l21.921 37.326"/><path stroke-width="8.01" d="M247.452 380.103l-39.334-67.334 39.338-67.328 80.092.004 39.334 67.331-39.338 67.331-80.092-.004z"/><path stroke-width="4.005" d="M247.892 245.853l22.186 37.619m51.6 29.629l45.168-.073"/></g><path fill="#FFF" d="M356.688 206.074a6.009 6.009 0 01-12.013-.246 6.008 6.008 0 0112.013.246zm40.049 44.054a6.008 6.008 0 11-12.012-.246 6.008 6.008 0 0112.012.246zm12.015 96.12a6.008 6.008 0 11-12.014-.248 6.008 6.008 0 0112.014.248zm-232.288 0a6.007 6.007 0 11-5.883-6.13 6.008 6.008 0 015.883 6.13zm40.052 67.836a6.007 6.007 0 016.131-5.881 6.005 6.005 0 015.882 6.129 6.008 6.008 0 11-12.013-.248zm120.149 4.005a6.005 6.005 0 016.129-5.881 6.008 6.008 0 11-6.129 5.881zM220.521 205.827a6.007 6.007 0 115.882 6.13 6.007 6.007 0 01-5.882-6.13zm-44.055 44.054a6.008 6.008 0 1112.013.248 6.008 6.008 0 01-12.013-.248z" display="block"/></g></svg>
