<svg xmlns="http://www.w3.org/2000/svg" width="575" height="575" preserveAspectRatio="xMidYMid slice" style="width:100%;height:100%">
  <defs>
    <clipPath id="a">
      <path d="M0 0h575v575H0z"/>
    </clipPath>
  </defs>
  <g clip-path="url(#a)">
    <g display="block">
      <path fill="#FFF" d="M444.25099945 281.67897725l-26.84899902-42.19100118h-46.02799988l-26.84899902 42.19100118 26.84899902 46.02700114h46.02799988l26.84899902-46.02700114zm-95.88999939 0l23.01300049-38.35599828h46.02799988l23.01399994 38.35599828-23.01399994 42.19199824h-46.02799988l-23.01300049-42.19199824z"/>
      <path fill="#EFF1F7" d="M403.0150013 284.4959755l-3.83700013-6.54300023h-7.66700006l-3.83599997 6.54300022 3.83599997 6.54300023h7.66700006l3.83700013-6.54300023z"/>
      <path fill="#F8F8F8" d="M415.49799967 284.50497544l-.01699996-.73899996-3.83500004.12600004.01499999.61299992c0 .94000006-.08000005 1.88700008-.24100006 2.819l3.78200006.65200007c.19499994-1.14600002.296-2.31600001.296-3.47100007zM408.60900256 269.32397532l-2.51999995 2.89200005c.85899997.748 1.64199996 1.59200004 2.32799995 2.50800005l3.06799996-2.30100006c-.84299994-1.13099998-1.81399995-2.17099994-2.87599996-3.09900004zM408.86199856 293.63397792l3.18400001 2.14400002c.79000008-1.17700004 1.46099997-2.43200004 1.98600006-3.73199999l-3.55100005-1.43800008c-.43000001 1.05000007-.97100002 2.06700003-1.61900002 3.02600005zM410.1700039 277.66197503c.47900008 1.04299998.84800004 2.13300001 1.09700011 3.245l3.74300003-.84000003c-.31000018-1.373-.76700008-2.72300005-1.35800004-4.00800002l-3.4820001 1.60300005zM389.68100214 303.84397769c1.35399991.39499998 2.75699991.65199995 4.15999997.75099993l.2759999-3.82700002c-1.13899994-.08499992-2.26999994-.283-3.36699998-.60099996l-1.06899989 3.67700005zM398.06100059 304.46197581c1.40800002-.1919999 2.78900003-.52899992 4.11199998-1.00499987l-1.29699993-3.60899997c-1.06900003.3829999-2.19000005.6559999-3.329.81699991l.51399995 3.79699993zM400.14000273 268.88997638c1.08899986.33700001 2.1469999.79100001 3.15199989 1.35099995l1.8639999-3.35599994c-1.23899984-.686-2.5509999-1.24399996-3.89699995-1.658l-1.11899984 3.663zM405.97800046 301.61597586c1.19300002-.74400008 2.31699997-1.61500013 3.34100002-2.60100009l-2.658-2.76500009c-.82899999.7980001-1.73800003 1.50700009-2.70399999 2.10600007l2.02099997 3.2600001zM382.27000141 299.82797736c1.07799995.92099994 2.25099999 1.72600001 3.48699999 2.3969999l1.829-3.37099988c-1.005-.54500001-1.95599997-1.19699996-2.827-1.94099992l-2.48899999 2.9149999zM384.92800069 267.24897552l1.98299998 3.27900004c.97800001-.58600009 2.02099997-1.07700002 3.10299998-1.45300007l-1.25800001-3.625c-1.33499997.46399999-2.62399996 1.06700003-3.82799995 1.79900003zM395.36100224 268.1809752c.47599998 0 .94800004.01899993 1.41599998.05799997l.32499992-3.82099998c-.57599997-.046-1.14999991-.07200003-1.7409999-.07200003l-.73700002.01499999c-.58700001.01900005-1.17299998.06099999-1.7479999.13400006l.47099995 3.80499995c.45700002-.05700004.92099994-.09200001 1.39699995-.10399998l.61700002-.01499998zM377.14199996 293.16597593c.61399984 1.27 1.357 2.48600006 2.21599996 3.60300004l3.04199994-2.34000003c-.69799996-.90599996-1.30299998-1.88800001-1.79399997-2.916l-3.46399993 1.65299999zM375.74199963 289.16897535l3.73199987-.88200009c-.24899995-1.043-.3959999-2.11700004-.43799984-3.35200011h-1.91800006l-1.9099999.29900014c.04600001 1.33099997.22699989 2.64999998.53399993 3.93500006zM375.53800154 280.76497722l3.7709999.71399998c.214-1.12699997.53999997-2.23199996.98099995-3.28699994l-3.5359999-1.477c-.54500007 1.29999996-.95100009 2.66199998-1.21599995 4.04999996zM378.79099941 273.00597548l3.1520001 2.18700004c.64799997-.93700004 1.40799996-1.81100005 2.2400001-2.59400003l-2.6200001-2.80000002c-1.03499999.97100007-1.96599998 2.04900002-2.7720001 3.20700001z"/>
      <path fill="#FFF" d="M379.04600048 254.82997632h30.68400002v-3.83400011h-30.68400002v3.83400011zM379.04600048 316.19897485h30.68400002v-3.83400011h-30.68400002v3.8340001z"/>
    </g>
    <g display="block">
      <path fill="#FFF" d="M183.42499733 282.34897614l-3.83500004-6.54400015h-7.6730001l-3.83200001 6.54400015 3.83200001 6.54400014h7.6730001l3.83500004-6.54400014z"/>
      <path fill="#FFF" d="M225.62099457 281.67897725l-26.84899903-42.19100118h-46.02799987l-26.84899903 42.19100118 26.84899903 46.02700114h46.02799987l26.84899903-46.02700114zm-95.8899994 0l23.0130005-38.35599828h46.02799987l23.0130005 38.35599828-23.0130005 42.19199824h-46.02799987l-23.0130005-42.19199824z"/>
      <path fill="#FFF" d="M197.14099371 290.70697594c.81700004-2.37000037 1.22700012-4.85800028 1.22700012-7.39000023l-.0150001-.852c-.069-1.79499995-.34100008-3.57000005-.81400001-5.27800023l-3.69699991 1.0170002c.39099991 1.42299986.62099993 2.90700006.67499995 4.41900003l.01599991.694c0 2.11000002-.34599995 4.17699993-1.01700007 6.14800012l3.62500011 1.2420001zM188.47599983 269.39297569c1.71500015 1.59599997 3.1040001 3.47100007 4.12800011 5.56199992l3.4480001-1.68400002c-1.23100018-2.51599993-2.9040001-4.76799989-4.96000015-6.68599987l-2.61600006 2.80799997zM190.08699715 300.9069767c2.167-1.79500031 3.96200001-3.94300023 5.34300006-6.38300014l-3.34100008-1.88700032c-1.14700002 2.03300023-2.64700008 3.82000023-4.45300007 5.32000017l2.4510001 2.95000029zM163.92399502 263.6279769c-2.41699997 1.42700004-4.52999997 3.26899999-6.2789998 5.47399997l3.00399982 2.38199997c1.45700002-1.82999992 3.2140001-3.36399996 5.22399986-4.54899996l-1.94899988-3.30699999zM178.7419982 305.91497469c2.78899997-.39499998 5.44200003-1.28399992 7.89300012-2.65299994l-1.86800027-3.34899992c-2.03699988 1.13499988-4.24099993 1.8779999-6.56200003 2.20499993l.53700018 3.79699993zM179.3049984 264.67497534c2.28199982.45999997 4.44499977 1.32699996 6.41699981 2.59299999l2.06299973-3.23799997c-2.37699974-1.514-4.9739998-2.56199998-7.72399974-3.11799998l-.7559998 3.76299996zM156.83699656 296.42297554c1.6070001 2.29299998 3.60800015 4.25699997 5.94400012 5.83400011l2.14400017-3.18400013c-1.94400024-1.31199998-3.61300015-2.94200004-4.94800013-4.85200012l-3.14000016 2.20200014zM174.8489976 264.31497622l.967-.01199997.13000011-3.83499992-.36400032-.00400019-.88199996.01500011c-2.39799995.08800006-4.74999989.54499996-6.99800015 1.36199999l1.31200027 3.60100007c1.86799998-.6780001 3.82499993-1.05800009 5.83500004-1.1270001zM152.8589971 280.54697466l3.80499995.46000004c.27999998-2.31599999.97399998-4.54100001 2.07099998-6.60800004l-3.38699996-1.79999996c-1.319 2.49000001-2.15600002 5.163-2.48899996 7.94799996zM154.75699705 292.7979765l3.49000007-1.59599996c-.96600008-2.11300004-1.5300001-4.37600005-1.67600012-6.72000003l-3.82800007.23799992c.17700005 2.81900012.85200012 5.53500008 2.01400012 8.07800006zM174.5689981 306.11897802l.15699982-3.83500003c-2.3399999-.09300006-4.60999992-.61300004-6.75-1.54500008l-1.52799987 3.52100003c2.57399988 1.11600005 5.306 1.74000013 8.12100005 1.85900008z"/>
      <path fill="#F8F8F8" d="M156.5799961 320.03497386h34.52000047v-3.83599997H156.5799961v3.83599997z"/>
    </g>
    <g display="block">
      <path fill="#FFF" d="M283.1550026 423.59697962h-26.85000086l-11.50600005-19.17799998h-3.83600044l11.50600052 23.01399994h30.68600082v-3.83599996zM333.01900482 323.87098312l-15.34399986-23.01399994h-30.68400002v3.83599997h30.68400002l11.50699997 19.17799997h3.8369999z"/>
      <path fill="#F8F8F8" d="M289.25100327 365.25798297c.0579996-2.74300003-2.12100006-5.01299977-4.86400015-5.06700015-2.73900002-.05799961-5.009 2.1170001-5.06700009 4.86000015-.05699968 2.74600003 2.12100005 5.013 4.86400008 5.07399986 2.7420001.0539999 5.00900007-2.12499976 5.06700016-4.86699986z"/>
      <path fill="#FFF" d="M371.37400818 366.06298137l-42.19200134-76.7119987h-88.21800232l-42.19200135 76.7119987 42.19200135 72.87599873h88.21800232l42.19200134-72.87599873zm-126.57500076 69.04099965l-42.19200516-72.87699962 42.19200516-69.04099965h80.54799652l42.19200515 69.04099965-42.19200515 72.87699962h-80.54799652z"/>
      <path fill="#FFF" d="M310.00400734 366.06198065l-11.50600052-23.01299994H267.8130064l-11.50700092 23.01299994 11.50700092 23.01499994h30.68500042l11.50600052-23.01499994zm-38.3560009 19.17800005l-11.50699997-19.17800005 11.50699997-19.1769995h23.01399994l11.50699997 19.1769995-11.50699997 19.17800005h-23.01399994z"/>
      <path fill="none" stroke="#F8F8F8" stroke-miterlimit="10" stroke-width="3.836" d="M324.70900345 363.814979c0 22.73900087-18.43499947 41.17400034-41.17300034 41.17400034-22.73900032 0-41.17300033-18.43499947-41.17300033-41.17400034 0-22.73899977 18.43400001-41.17200033 41.17300033-41.17200033 22.73800087 0 41.17300034 18.43300056 41.17300034 41.17200033z"/>
    </g>
    <g display="block">
      <path fill="#FFF" d="M317.67500496 201.13100433l-15.342-23.01399994h-26.84899999l-15.3430004 23.01399994 15.3430004 23.01399994h26.84899998l15.342-23.01399994zm-53.69799996 0l11.50699997-19.1779995h26.84899998l11.50699902 19.1779995-11.50699902 19.1779995h-26.84899998l-11.50699997-19.1779995zM324.94700766 205.13600588l-.03900004.19200039c-.19499993 2.2659998-.61399984 4.56399977-1.22800016 6.82799983l-.03799963.19099998 7.05799985 1.9599998.19099998.03500033h.806l-.579-.26900006c.73300004-2.64300012 1.19299984-5.36600005 1.4619999-8.13100004l-7.6329999-.80600023zM323.48900032 191.3660059l.0380001.19099998c.65199996 2.2640001 1.112 4.56500006 1.339 6.78900004v.23099994l7.67100024-.806-.0340004-.1919999c-.27299976-2.723-.80599976-5.48399997-1.61099982-8.16999984v-.23000002l-7.40300012 2.1869998zM296.33300161 238.46700406l-.1919999.03900004 1.76499986 7.47999978.19099998-.03599978c2.68499992-.65199995 5.33200002-1.53700018 7.93599987-2.68799996l.1539998-.15300012-3.10399973-6.94299984-.19099998.07699967c-2.11000004.92100024-4.334 1.68700027-6.5589999 2.22400021zM325.01900446 227.3050065c1.57700003-2.33999991 2.95800007-4.79399997 4.02699984-7.36400008l.08100032-.15299988-6.86600017-2.95299983-.03799999-.03900003-.23399997.11399984c-.87900006 2.1099999-1.99100005 4.181-3.29499995 6.09900004l-.11500025.15399998 6.36700022 4.29499984.07299995-.15299988zM299.78100681 158.80200672c-1.52999997-.42199993-3.064-.80600023-4.64100003-1.03600025l-.18799996-.033-1.2659998 7.55200005.18799973.03900004c1.30800009.19099998 2.57000017.49699998 3.83600008.842.886.23000002 1.764.53699995 2.76499999.8829999v.95800019l2.95299983-8.0500002-.19099999-.04199981c-1.11199975-.42200017-2.2249999-.76800013-3.45599985-1.11299992zM314.3990053 228.18800259l-.11499999.19300031c-1.65 1.64899993-3.456 3.14499998-5.33199992 4.4529999l-.15299988.111 4.37199986 6.32900023.15399992-.11600018c2.25900007-1.57299995 4.36800003-3.33599996 6.28600002-5.25400005l.1539998.19200002v-.45700001l-5.21299979-5.2579999-.15300001-.19300032zM310.7900033 163.48500538l-.15399992-.08099985-3.83599985 6.40600002-.0340004.03799998.11400032.23000002c1.95700002 1.19000006 3.83599985 2.5710001 5.5999999 4.10899997l.112.11100006 5.10200023-5.75400004-.15400028-.111c-2.07099986-1.845-4.33299994-3.49399993-6.75-4.94800016zM323.25500011 174.56600332l-.115-.15299988-6.05699993 4.67899997.11100006.15500003c1.42299986 1.80599999 2.6889999 3.79599988 3.7629999 5.86699974l.07299995.15500021 6.83099997-3.49099994-.07599974-.15400004c-1.30800008-2.49-2.80100011-4.87100005-4.5300002-7.05800009zM269.25000691 234.59700346l-3.79299998 6.66999996.19099999.07700002c2.37800002 1.37999987 4.94800004 2.4929998 7.62899994 3.4139998l.1960001.07700014 2.37800002-7.09599996v-1.22300005l-.30700016.91499996c-2.15199995-.72799992-4.22299987-1.648-6.1409999-2.75999999l-.153-.07399988zM256.51900235 169.69500399c-1.95999995 1.87900018-3.75899998 3.95200014-5.3699998 6.17600017l-.11900043-.115-.07299996.42199999 6.06100017 4.33400023.111.03899955h.46000004l-.18800002-.1919999c1.343-1.87899996 2.83800012-3.6049999 4.44999987-5.13999988l.11400032-.115-5.2930002-5.55899978-.153.14999962zM258.82100442 225.77100325l-.12-.15199995-5.9409999 4.8709998.1159997.11800004c1.80200028 2.18299997 3.75400019 4.21499991 5.8670002 5.9790001l.15099998.11599969 5.06599993-6.0219998h-.31099987c-1.72600007-1.45799998-3.33600009-3.10699991-4.82800004-4.90999988zM254.86600447 220.28700733l.08099985-.07299995-.19199991-.11900008.1919999-.07700002c-1.1129999-2.07099998-2.03299998-4.21899986-2.76600002-6.40499973l-.11100007-.15400029-8.21300005 2.64700008h1.07800006c.83999992 2.60799998 1.9519999 5.1400001 3.26 7.51799989v.30700016l6.67100024-3.64400006zM270.67299962 160.56600332l-.3110001.04199982c-2.531 1.07000017-4.98200012 2.37500024-7.28399993 3.87100017l-.15299988.11800003 4.06599975 6.2490002.23000002.07599973h.07700002c1.879-1.26600003 3.87-2.33500004 5.94099987-3.18299997l.30999994.54000008v-.80500007l-2.84099984-6.79300022-.03499985-.11499977zM278.61199999 158.07300568l-.30700016-.61399985 1.87900019 9.78100014v-1.68400025c2.26299992-.46399999 4.52699995-.694 6.75099992-.77099991l.03800011-7.67100024h-.19199991c-2.72300017.07700014-5.4840002.3840003-8.16900015.9590001zM287.74100542 247.13500166c.65199995 0 1.33899999.00099993 2.033-.03699994h.22900008l-.38300013-7.671h-.19099999c-1.95999991.07599997-4.56399995-.00099993-6.94299984-.30900002l-.15300011-.03699994-1.07800007 7.44099998h.19500017l-.0420003.19099999c2.11400009.26900005 4.2240002.42199993 6.3330002.42199993zM246.8530035 183.27300644c-.99699998 2.18599987-1.84100008 4.44899985-2.49300003 6.7889998-.04199982.23000001-.11500025.46000003-.19500017.69000005l-.1539998.61400008 7.44499993 1.88000012.115-.42300034c.07599998-.23000002.11100007-.46000004.19199992-.68999982.533-1.95600009 1.22700024-3.83600004 2.0710001-5.63400006l.07299995-.19599998-6.977-3.1830002-.0769999.15300035zM242.78800178 199.42100239c-.04199982.88199973-.08099986 1.76799989-.08099986 2.72699976 0 1.87600004.11899996 3.79400015.34599996 5.67299986l.04200006.19200039 7.59399986-.95900011v-.19200016c-.23000002-1.57299995-.31099987-3.18399993-.31099987-4.71399998 0-.77099991 0-1.49899984.08099985-2.26699996l-7.671-.6520002v.1920004z"/>
      <path fill="#F8F8F8" d="M283.15400314 262.50100183h-26.8489995l-10.7590003-19.17799997h-6.29599953l13.21899987 23.01399994h30.68499946v-3.83599997zM333.01900482 162.77500534l-15.34399986-23.01399994h-30.68400002v3.83599997h30.68400002l11.50699997 19.17799997h3.8369999z"/>
      <path fill="#FFF" d="M371.37400818 204.96700358l-42.19200134-76.7119987h-88.21800232l-42.19200135 76.7119987 42.19200135 72.87599874h88.21800232l42.19200134-72.87599874zm-126.57500076 69.04099965l-42.19200516-72.87699961 42.19200516-69.04099965h80.54799652l42.19200515 69.04099965-42.19200515 72.87699961h-80.54799652z"/>
      <path fill="#F8F8F8" d="M297.47000408 201.13100378l-3.8369999-6.64200012h-7.671l-3.83599996 6.64200012 3.83599996 6.64400013h7.671l3.8369999-6.64400013z"/>
    </g>
    <g display="block">
      <path fill="none" stroke="#F8F8F8" stroke-miterlimit="10" stroke-width="3.836" d="M403.34500098 87.8689884l-.97-1.65400005h-1.918"/>
      <path fill="none" stroke="#F8F8F8" stroke-dasharray="3.823 3.823 3.823 3.823 3.823 3.823" stroke-miterlimit="10" stroke-width="3.836" d="M396.63400269 86.2149887h-28.67300415M366.05001831 86.2149887H176.80700684"/>
      <path fill="none" stroke="#F8F8F8" stroke-miterlimit="10" stroke-width="3.836" d="M174.89500403 86.21498835h-1.918l-.97 1.65400004"/>
      <path fill="none" stroke="#F8F8F8" stroke-dasharray="3.776 3.776 3.776 3.776 3.776 3.776" stroke-miterlimit="10" stroke-width="3.836" d="M170.09500885 91.12498951l-14.33399963 24.4279995M154.8060112 117.18198395L60.20401382 278.39598846"/>
      <path fill="none" stroke="#F8F8F8" stroke-miterlimit="10" stroke-width="3.836" d="M59.24900812 280.02498555l-.972 1.65400005.972 1.65400004"/>
      <path fill="none" stroke="#F8F8F8" stroke-dasharray="3.776 3.776 3.776 3.776 3.776 3.776" stroke-miterlimit="10" stroke-width="3.836" d="M61.15900803 286.58899403l14.33399963 24.4279995M76.44900894 312.64499664l94.60199738 161.21400452"/>
      <path fill="none" stroke="#F8F8F8" stroke-miterlimit="10" stroke-width="3.836" d="M172.00700402 475.48899424l.97 1.65400004h1.91800001"/>
      <path fill="none" stroke="#F8F8F8" stroke-dasharray="3.823 3.823 3.823 3.823 3.823 3.823" stroke-miterlimit="10" stroke-width="3.836" d="M178.71800232 477.14299011h28.67300415M209.30200195 477.14299011h189.24301148"/>
      <path fill="none" stroke="#F8F8F8" stroke-miterlimit="10" stroke-width="3.836" d="M400.45700097 477.14299428h1.91800001l.97-1.65400004"/>
      <path fill="none" stroke="#F8F8F8" stroke-dasharray="3.776 3.776 3.776 3.776 3.776 3.776" stroke-miterlimit="10" stroke-width="3.836" d="M405.25701141 472.23198986l14.33399964-24.4279995M420.5460167 446.17598724l94.60199737-161.21400451"/>
      <path fill="none" stroke="#F8F8F8" stroke-miterlimit="10" stroke-width="3.836" d="M516.10401976 283.33298564l.97000003-1.65400004-.97000003-1.65400005"/>
      <path fill="none" stroke="#F8F8F8" stroke-dasharray="3.776 3.776 3.776 3.776 3.776 3.776" stroke-miterlimit="10" stroke-width="3.836" d="M514.1930008 276.76799297l-14.33399964-24.4260006M498.90301895 250.71199036L404.30102158 89.49798584"/>
      <path fill="#F8F8F8" d="M114.04601097 418.11999702l11.75399989 19.99199963 9.9199999-5.83099985-11.7539999-19.99299955-9.91999989 5.83199977zM298.49799728 485.06797361h-23.01399994v11.40500021h23.01399994v-11.4050002zM265.02601242 485.06797361h-23.01399994v11.40500021h23.01399994v-11.4050002zM310.00401688 78.28898668h23.01399994V66.8849864h-23.01399994v11.40400028zM275.48399734 78.28898668h23.01399994V66.8849864h-23.01399994v11.40400028zM435.94999409 128.052989l10.9789998 18.68099976 9.92099982-5.82999944-10.97999978-18.68199969-9.91999984 5.83099938z"/>
      <path fill="none" stroke="#FFF" stroke-miterlimit="10" stroke-width="2.877" d="M114.38801193 409.0349884l-76.7120018-129.25699615L160.41501141 70.68699646h99.72600269M460.96402359 153.86099243l76.71100235 129.25800324-122.73800182 209.09099579h-99.7260027"/>
      <path fill="none" stroke="#FFF" stroke-miterlimit="10" stroke-width="7.671" d="M224.83101273 492.20998383l-63.87899971-.92099953-24.3010006-42.80200005M344.5120163 70.68598747l63.88199997.6969986 24.45199966 42.71500015"/>
      <path fill="#FFF" d="M397.57501507 105.52198737c0 3.5160001-2.85100007 6.36700017-6.36700018 6.36700017-3.51500003 0-6.36500017-2.85100007-6.36500017-6.36700017 0-3.51599996 2.85000014-6.36500018 6.36500017-6.36500018 3.5160001 0 6.36700018 2.84900022 6.36700018 6.36500018zM190.17700481 105.52198737c0 3.5160001-2.85000014 6.36700017-6.36500017 6.36700017-3.5160001 0-6.36599977-2.85100007-6.36599977-6.36700017 0-3.51599996 2.84999966-6.36500018 6.36599977-6.36500018 3.51500003 0 6.36500017 2.84900022 6.36500017 6.36500018zM500.0360136 280.56599426c0 3.51600004-2.85100007 6.36600018-6.36600017 6.36600018-3.51600003 0-6.36600018-2.85000014-6.36600018-6.36600018 0-3.51600003 2.85000015-6.36600017 6.36600018-6.36600017 3.5150001 0 6.36600017 2.85000014 6.36600017 6.36600017zM83.92700863 280.56599426c0 3.51600004-2.85000014 6.36600018-6.36500018 6.36600018-3.5160001 0-6.36700017-2.85000014-6.36700017-6.36600018 0-3.51600003 2.85100007-6.36600017 6.36700017-6.36600017 3.51500004 0 6.36500018 2.85000014 6.36500018 6.36600017zM190.17700481 458.98097937c0 3.5160001-2.85000014 6.36599977-6.36500017 6.36599977-3.5160001 0-6.36599977-2.84999966-6.36599977-6.36599977 0-3.51500003 2.84999966-6.36500018 6.36599977-6.36500018 3.51500003 0 6.36500017 2.85000015 6.36500017 6.36500018zM397.74002361 458.98097937c0 3.5160001-2.85100007 6.36599977-6.36700017 6.36599977-3.51500003 0-6.36500018-2.84999966-6.36500018-6.36599977 0-3.51500003 2.85000015-6.36500018 6.36500018-6.36500018 3.5160001 0 6.36700017 2.85000015 6.36700017 6.36500018z"/>
    </g>
  </g>
</svg>
